<?xml version="1.0" standalone="no"?>
<svg xmlns:xlink="http://www.w3.org/1999/xlink" id="wave" style="transform:rotate(0deg); transition: 0.3s" viewBox="0 0 1440 490" version="1.1" xmlns="http://www.w3.org/2000/svg"><defs><linearGradient id="sw-gradient-0" x1="0" x2="0" y1="1" y2="0"><stop stop-color="rgba(0, 37, 84, 1)" offset="0%"/><stop stop-color="rgba(0.527, 91.719, 207.558, 1)" offset="100%"/></linearGradient></defs><path style="transform:translate(0, 0px); opacity:1" fill="url(#sw-gradient-0)" d="M0,196L48,204.2C96,212,192,229,288,228.7C384,229,480,212,576,196C672,180,768,163,864,187.8C960,212,1056,278,1152,277.7C1248,278,1344,212,1440,171.5C1536,131,1632,114,1728,98C1824,82,1920,65,2016,122.5C2112,180,2208,310,2304,375.7C2400,441,2496,441,2592,432.8C2688,425,2784,408,2880,343C2976,278,3072,163,3168,147C3264,131,3360,212,3456,261.3C3552,310,3648,327,3744,334.8C3840,343,3936,343,4032,285.8C4128,229,4224,114,4320,73.5C4416,33,4512,65,4608,122.5C4704,180,4800,261,4896,294C4992,327,5088,310,5184,326.7C5280,343,5376,392,5472,416.5C5568,441,5664,441,5760,400.2C5856,359,5952,278,6048,277.7C6144,278,6240,359,6336,392C6432,425,6528,408,6624,359.3C6720,310,6816,229,6864,187.8L6912,147L6912,490L6864,490C6816,490,6720,490,6624,490C6528,490,6432,490,6336,490C6240,490,6144,490,6048,490C5952,490,5856,490,5760,490C5664,490,5568,490,5472,490C5376,490,5280,490,5184,490C5088,490,4992,490,4896,490C4800,490,4704,490,4608,490C4512,490,4416,490,4320,490C4224,490,4128,490,4032,490C3936,490,3840,490,3744,490C3648,490,3552,490,3456,490C3360,490,3264,490,3168,490C3072,490,2976,490,2880,490C2784,490,2688,490,2592,490C2496,490,2400,490,2304,490C2208,490,2112,490,2016,490C1920,490,1824,490,1728,490C1632,490,1536,490,1440,490C1344,490,1248,490,1152,490C1056,490,960,490,864,490C768,490,672,490,576,490C480,490,384,490,288,490C192,490,96,490,48,490L0,490Z"/></svg>