<?xml version="1.0" standalone="no"?>
<svg xmlns:xlink="http://www.w3.org/1999/xlink" id="wave" style="transform:rotate(180deg); transition: 0.3s" viewBox="0 0 1440 490" version="1.1" xmlns="http://www.w3.org/2000/svg"><defs><linearGradient id="sw-gradient-0" x1="0" x2="0" y1="1" y2="0"><stop stop-color="rgba(21, 52, 117, 1)" offset="0%"/><stop stop-color="rgba(71.201, 185.881, 255, 1)" offset="100%"/></linearGradient></defs><path style="transform:translate(0, 0px); opacity:1" fill="url(#sw-gradient-0)" d="M0,147L26.7,138.8C53.3,131,107,114,160,89.8C213.3,65,267,33,320,32.7C373.3,33,427,65,480,65.3C533.3,65,587,33,640,89.8C693.3,147,747,294,800,351.2C853.3,408,907,376,960,375.7C1013.3,376,1067,408,1120,424.7C1173.3,441,1227,441,1280,424.7C1333.3,408,1387,376,1440,326.7C1493.3,278,1547,212,1600,171.5C1653.3,131,1707,114,1760,147C1813.3,180,1867,261,1920,285.8C1973.3,310,2027,278,2080,285.8C2133.3,294,2187,343,2240,318.5C2293.3,294,2347,196,2400,147C2453.3,98,2507,98,2560,114.3C2613.3,131,2667,163,2720,212.3C2773.3,261,2827,327,2880,343C2933.3,359,2987,327,3040,261.3C3093.3,196,3147,98,3200,65.3C3253.3,33,3307,65,3360,106.2C3413.3,147,3467,196,3520,220.5C3573.3,245,3627,245,3680,212.3C3733.3,180,3787,114,3813,81.7L3840,49L3840,490L3813.3,490C3786.7,490,3733,490,3680,490C3626.7,490,3573,490,3520,490C3466.7,490,3413,490,3360,490C3306.7,490,3253,490,3200,490C3146.7,490,3093,490,3040,490C2986.7,490,2933,490,2880,490C2826.7,490,2773,490,2720,490C2666.7,490,2613,490,2560,490C2506.7,490,2453,490,2400,490C2346.7,490,2293,490,2240,490C2186.7,490,2133,490,2080,490C2026.7,490,1973,490,1920,490C1866.7,490,1813,490,1760,490C1706.7,490,1653,490,1600,490C1546.7,490,1493,490,1440,490C1386.7,490,1333,490,1280,490C1226.7,490,1173,490,1120,490C1066.7,490,1013,490,960,490C906.7,490,853,490,800,490C746.7,490,693,490,640,490C586.7,490,533,490,480,490C426.7,490,373,490,320,490C266.7,490,213,490,160,490C106.7,490,53,490,27,490L0,490Z"/></svg>