<?xml version="1.0" standalone="no"?>
<svg xmlns:xlink="http://www.w3.org/1999/xlink" id="wave" style="transform:rotate(180deg); transition: 0.3s" viewBox="0 0 1440 490" version="1.1" xmlns="http://www.w3.org/2000/svg"><defs><linearGradient id="sw-gradient-0" x1="0" x2="0" y1="1" y2="0"><stop stop-color="rgba(78.401, 188.775, 255, 1)" offset="0%"/><stop stop-color="rgba(21, 52, 117, 1)" offset="100%"/></linearGradient></defs><path style="transform:translate(0, 0px); opacity:1" fill="url(#sw-gradient-0)" d="M0,0L80,24.5C160,49,320,98,480,98C640,98,800,49,960,24.5C1120,0,1280,0,1440,65.3C1600,131,1760,261,1920,326.7C2080,392,2240,392,2400,343C2560,294,2720,196,2880,163.3C3040,131,3200,163,3360,187.8C3520,212,3680,229,3840,220.5C4000,212,4160,180,4320,212.3C4480,245,4640,343,4800,367.5C4960,392,5120,343,5280,334.8C5440,327,5600,359,5760,383.8C5920,408,6080,425,6240,424.7C6400,425,6560,408,6720,334.8C6880,261,7040,131,7200,98C7360,65,7520,131,7680,187.8C7840,245,8000,294,8160,294C8320,294,8480,245,8640,245C8800,245,8960,294,9120,285.8C9280,278,9440,212,9600,179.7C9760,147,9920,147,10080,122.5C10240,98,10400,49,10560,65.3C10720,82,10880,163,11040,171.5C11200,180,11360,114,11440,81.7L11520,49L11520,490L11440,490C11360,490,11200,490,11040,490C10880,490,10720,490,10560,490C10400,490,10240,490,10080,490C9920,490,9760,490,9600,490C9440,490,9280,490,9120,490C8960,490,8800,490,8640,490C8480,490,8320,490,8160,490C8000,490,7840,490,7680,490C7520,490,7360,490,7200,490C7040,490,6880,490,6720,490C6560,490,6400,490,6240,490C6080,490,5920,490,5760,490C5600,490,5440,490,5280,490C5120,490,4960,490,4800,490C4640,490,4480,490,4320,490C4160,490,4000,490,3840,490C3680,490,3520,490,3360,490C3200,490,3040,490,2880,490C2720,490,2560,490,2400,490C2240,490,2080,490,1920,490C1760,490,1600,490,1440,490C1280,490,1120,490,960,490C800,490,640,490,480,490C320,490,160,490,80,490L0,490Z"/></svg>